<?xml version="1.0" encoding="us-ascii" standalone="no"?>
<svg xmlns="http://www.w3.org/2000/svg" contentStyleType="text/css"
     height="686px" preserveAspectRatio="none" style="width:487px;height:686px;background:#FFFFFF;" version="1.1"
     viewBox="0 0 487 686" width="487px" zoomAndPan="magnify">
    <defs/>
    <g>
        <ellipse cx="209.25" cy="20" fill="#222222" rx="10" ry="10" style="stroke:#222222;stroke-width:1.0;"/>
        <rect fill="#F1F1F1" height="33.9688" rx="12.5" ry="12.5" style="stroke:#181818;stroke-width:0.5;" width="131"
              x="143.75" y="50"/>
        <text fill="#000000" font-family="sans-serif" font-size="12" lengthAdjust="spacing" textLength="111" x="153.75"
              y="71.1387">User initiates login
        </text>
        <polygon fill="#F1F1F1"
                 points="123.25,103.9688,295.25,103.9688,307.25,115.9688,295.25,127.9688,123.25,127.9688,111.25,115.9688,123.25,103.9688"
                 style="stroke:#181818;stroke-width:0.5;"/>
        <text fill="#000000" font-family="sans-serif" font-size="11" lengthAdjust="spacing" textLength="172" x="123.25"
              y="119.7769">Is user already authenticated?
        </text>
        <text fill="#000000" font-family="sans-serif" font-size="11" lengthAdjust="spacing" textLength="20" x="91.25"
              y="113.3745">yes
        </text>
        <text fill="#000000" font-family="sans-serif" font-size="11" lengthAdjust="spacing" textLength="14" x="307.25"
              y="113.3745">no
        </text>
        <rect fill="#F1F1F1" height="33.9688" rx="12.5" ry="12.5" style="stroke:#181818;stroke-width:0.5;" width="154"
              x="11" y="137.9688"/>
        <text fill="#000000" font-family="sans-serif" font-size="12" lengthAdjust="spacing" textLength="134" x="21"
              y="159.1074">Proceed to application
        </text>
        <rect fill="#F1F1F1" height="33.9688" rx="12.5" ry="12.5" style="stroke:#181818;stroke-width:0.5;" width="233"
              x="214" y="137.9688"/>
        <text fill="#000000" font-family="sans-serif" font-size="12" lengthAdjust="spacing" textLength="213" x="224"
              y="159.1074">Generate state and PKCE challenge
        </text>
        <rect fill="#F1F1F1" height="33.9688" rx="12.5" ry="12.5" style="stroke:#181818;stroke-width:0.5;" width="211"
              x="225" y="191.9375"/>
        <text fill="#000000" font-family="sans-serif" font-size="12" lengthAdjust="spacing" textLength="191" x="235"
              y="213.0762">Build authorization request URL
        </text>
        <rect fill="#F1F1F1" height="33.9688" rx="12.5" ry="12.5" style="stroke:#181818;stroke-width:0.5;" width="257"
              x="202" y="245.9063"/>
        <text fill="#000000" font-family="sans-serif" font-size="12" lengthAdjust="spacing" textLength="237" x="212"
              y="267.0449">Redirect user to authorization endpoint
        </text>
        <rect fill="#F1F1F1" height="33.9688" rx="12.5" ry="12.5" style="stroke:#181818;stroke-width:0.5;" width="227"
              x="217" y="299.875"/>
        <text fill="#000000" font-family="sans-serif" font-size="12" lengthAdjust="spacing" textLength="207" x="227"
              y="321.0137">User authenticates and authorizes
        </text>
        <rect fill="#F1F1F1" height="33.9688" rx="12.5" ry="12.5" style="stroke:#181818;stroke-width:0.5;" width="291"
              x="185" y="353.8438"/>
        <text fill="#000000" font-family="sans-serif" font-size="12" lengthAdjust="spacing" textLength="271" x="195"
              y="374.9824">Authorization server redirects user with code
        </text>
        <rect fill="#F1F1F1" height="33.9688" rx="12.5" ry="12.5" style="stroke:#181818;stroke-width:0.5;" width="147"
              x="257" y="407.8125"/>
        <text fill="#000000" font-family="sans-serif" font-size="12" lengthAdjust="spacing" textLength="127" x="267"
              y="428.9512">Check state matches
        </text>
        <rect fill="#F1F1F1" height="33.9688" rx="12.5" ry="12.5" style="stroke:#181818;stroke-width:0.5;" width="260"
              x="200.5" y="461.7813"/>
        <text fill="#000000" font-family="sans-serif" font-size="12" lengthAdjust="spacing" textLength="240" x="210.5"
              y="482.9199">Exchange authorization code for tokens
        </text>
        <rect fill="#F1F1F1" height="33.9688" rx="12.5" ry="12.5" style="stroke:#181818;stroke-width:0.5;" width="191"
              x="235" y="515.75"/>
        <text fill="#000000" font-family="sans-serif" font-size="12" lengthAdjust="spacing" textLength="171" x="245"
              y="536.8887">Store tokens in local storage
        </text>
        <polygon fill="#F1F1F1" points="209.25,555.7188,221.25,567.7188,209.25,579.7188,197.25,567.7188,209.25,555.7188"
                 style="stroke:#181818;stroke-width:0.5;"/>
        <rect fill="#F1F1F1" height="33.9688" rx="12.5" ry="12.5" style="stroke:#181818;stroke-width:0.5;" width="298"
              x="60.25" y="599.7188"/>
        <text fill="#000000" font-family="sans-serif" font-size="12" lengthAdjust="spacing" textLength="278" x="70.25"
              y="620.8574">Access protected resources with access token
        </text>
        <ellipse cx="209.25" cy="664.6875" fill="none" rx="11" ry="11" style="stroke:#222222;stroke-width:1.0;"/>
        <ellipse cx="209.25" cy="664.6875" fill="#222222" rx="6" ry="6" style="stroke:#222222;stroke-width:1.0;"/>
        <line style="stroke:#181818;stroke-width:1.0;" x1="209.25" x2="209.25" y1="30" y2="50"/>
        <polygon fill="#181818" points="205.25,40,209.25,50,213.25,40,209.25,44"
                 style="stroke:#181818;stroke-width:1.0;"/>
        <line style="stroke:#181818;stroke-width:1.0;" x1="330.5" x2="330.5" y1="171.9375" y2="191.9375"/>
        <polygon fill="#181818" points="326.5,181.9375,330.5,191.9375,334.5,181.9375,330.5,185.9375"
                 style="stroke:#181818;stroke-width:1.0;"/>
        <line style="stroke:#181818;stroke-width:1.0;" x1="330.5" x2="330.5" y1="225.9063" y2="245.9063"/>
        <polygon fill="#181818" points="326.5,235.9063,330.5,245.9063,334.5,235.9063,330.5,239.9063"
                 style="stroke:#181818;stroke-width:1.0;"/>
        <line style="stroke:#181818;stroke-width:1.0;" x1="330.5" x2="330.5" y1="279.875" y2="299.875"/>
        <polygon fill="#181818" points="326.5,289.875,330.5,299.875,334.5,289.875,330.5,293.875"
                 style="stroke:#181818;stroke-width:1.0;"/>
        <line style="stroke:#181818;stroke-width:1.0;" x1="330.5" x2="330.5" y1="333.8438" y2="353.8438"/>
        <polygon fill="#181818" points="326.5,343.8438,330.5,353.8438,334.5,343.8438,330.5,347.8438"
                 style="stroke:#181818;stroke-width:1.0;"/>
        <line style="stroke:#181818;stroke-width:1.0;" x1="330.5" x2="330.5" y1="387.8125" y2="407.8125"/>
        <polygon fill="#181818" points="326.5,397.8125,330.5,407.8125,334.5,397.8125,330.5,401.8125"
                 style="stroke:#181818;stroke-width:1.0;"/>
        <line style="stroke:#181818;stroke-width:1.0;" x1="330.5" x2="330.5" y1="441.7813" y2="461.7813"/>
        <polygon fill="#181818" points="326.5,451.7813,330.5,461.7813,334.5,451.7813,330.5,455.7813"
                 style="stroke:#181818;stroke-width:1.0;"/>
        <line style="stroke:#181818;stroke-width:1.0;" x1="330.5" x2="330.5" y1="495.75" y2="515.75"/>
        <polygon fill="#181818" points="326.5,505.75,330.5,515.75,334.5,505.75,330.5,509.75"
                 style="stroke:#181818;stroke-width:1.0;"/>
        <line style="stroke:#181818;stroke-width:1.0;" x1="111.25" x2="88" y1="115.9688" y2="115.9688"/>
        <line style="stroke:#181818;stroke-width:1.0;" x1="88" x2="88" y1="115.9688" y2="137.9688"/>
        <polygon fill="#181818" points="84,127.9688,88,137.9688,92,127.9688,88,131.9688"
                 style="stroke:#181818;stroke-width:1.0;"/>
        <line style="stroke:#181818;stroke-width:1.0;" x1="307.25" x2="330.5" y1="115.9688" y2="115.9688"/>
        <line style="stroke:#181818;stroke-width:1.0;" x1="330.5" x2="330.5" y1="115.9688" y2="137.9688"/>
        <polygon fill="#181818" points="326.5,127.9688,330.5,137.9688,334.5,127.9688,330.5,131.9688"
                 style="stroke:#181818;stroke-width:1.0;"/>
        <line style="stroke:#181818;stroke-width:1.0;" x1="88" x2="88" y1="171.9375" y2="567.7188"/>
        <line style="stroke:#181818;stroke-width:1.0;" x1="88" x2="197.25" y1="567.7188" y2="567.7188"/>
        <polygon fill="#181818" points="187.25,563.7188,197.25,567.7188,187.25,571.7188,191.25,567.7188"
                 style="stroke:#181818;stroke-width:1.0;"/>
        <line style="stroke:#181818;stroke-width:1.0;" x1="330.5" x2="330.5" y1="549.7188" y2="567.7188"/>
        <line style="stroke:#181818;stroke-width:1.0;" x1="330.5" x2="221.25" y1="567.7188" y2="567.7188"/>
        <polygon fill="#181818" points="231.25,563.7188,221.25,567.7188,231.25,571.7188,227.25,567.7188"
                 style="stroke:#181818;stroke-width:1.0;"/>
        <line style="stroke:#181818;stroke-width:1.0;" x1="209.25" x2="209.25" y1="83.9688" y2="103.9688"/>
        <polygon fill="#181818" points="205.25,93.9688,209.25,103.9688,213.25,93.9688,209.25,97.9688"
                 style="stroke:#181818;stroke-width:1.0;"/>
        <line style="stroke:#181818;stroke-width:1.0;" x1="209.25" x2="209.25" y1="579.7188" y2="599.7188"/>
        <polygon fill="#181818" points="205.25,589.7188,209.25,599.7188,213.25,589.7188,209.25,593.7188"
                 style="stroke:#181818;stroke-width:1.0;"/>
        <line style="stroke:#181818;stroke-width:1.0;" x1="209.25" x2="209.25" y1="633.6875" y2="653.6875"/>
        <polygon fill="#181818" points="205.25,643.6875,209.25,653.6875,213.25,643.6875,209.25,647.6875"
                 style="stroke:#181818;stroke-width:1.0;"/><!--SRC=[NP51JWCn34NtEOMNqojq5gXK5KAmg8fwW2XnErP3F7KyG3azJcQGA9kHahp__R-dg1TrwsD10Sgav1KB93vJxfsZ4tJF1QRwwfEWZpVmamwObOAHyM45zGJT3SlA0QptmW4nWZBuSKoL8ZOhJ0MXozoW9yme9eUYzUjpXFtBTWTXy2bXFcDVgSU9KcpZMEYx-O3WTSAYS3oyDkQ0aGI3pX7hq3iSSnoPiZQsTVoRlhJ9lmeiZThS6PZamrIoZ5bMyKawGE0uvzmE62vBbNUlOLYSTb_MnyhyorHrSEAQze9vHj-K1PSB-mss_-2JMRBukWohGIVdrfiGi1GOXTN2s9O52qzYbtCaFxytdzwPVFm1]-->
    </g>
</svg>